<svg width="10" height="10" viewBox="0 0 10 10" fill="none" xmlns="http://www.w3.org/2000/svg">
<path fill-rule="evenodd" clip-rule="evenodd" d="M6.17828 5.0001L9.75564 1.42268C10.0815 1.09685 10.0815 0.570196 9.75564 0.24437C9.42982 -0.0814566 8.90317 -0.0814566 8.57735 0.24437L5 3.8218L1.42265 0.24437C1.09683 -0.0814566 0.570185 -0.0814566 0.244365 0.24437C-0.0814549 0.570196 -0.0814549 1.09685 0.244365 1.42268L3.82172 5.0001L0.244365 8.57753C-0.0814549 8.90336 -0.0814549 9.43001 0.244365 9.75584C0.406858 9.91833 0.620182 10 0.833507 10C1.04683 10 1.26016 9.91833 1.42265 9.75584L5 6.17841L8.57735 9.75584C8.73984 9.91833 8.95317 10 9.16649 10C9.37982 10 9.59314 9.91833 9.75564 9.75584C10.0815 9.43001 10.0815 8.90336 9.75564 8.57753L6.17828 5.0001Z" fill="#72777A"/>
</svg>
