<?xml version="1.0" encoding="UTF-8"?><svg id="a" xmlns="http://www.w3.org/2000/svg" width="33.47" height="18.11" viewBox="0 0 33.47 18.11"><path d="m26.15,0c1.37.03,2.53,1.34,2.48,2.84-.05,1.42-1.23,2.71-2.51,2.71-1.35,0-2.53-1.29-2.53-2.82S24.73-.03,26.15,0Z" style="fill:#ef4441;"/><path d="m14.18,0c1.37.03,2.53,1.34,2.48,2.84-.05,1.42-1.23,2.71-2.51,2.71-1.35,0-2.53-1.29-2.53-2.82S12.76-.03,14.18,0Z" style="fill:#212121;"/><path d="m.64,13.13c-.95.25-.76,1.57.06,2.14,1.33.93,2.55,2,3.9,2.48,1.34.43,2.76.42,4.1-.04.84-.27,1.62-.74,2.29-1.36l.61-.61c.21-.26.37-.41.57-.65.11-.12.18-.22.29-.34.48-.56.98-1.09,1.51-1.58.9-.8,1.89-1.45,2.94-1.94,1.15-.55,2.38-.93,3.44-1.48.94-.5,1.31-1.32,1.41-2.3.07-.64-.55-1.08-1.13-.88-.39.12-.79.23-1.2.3-5.5,1.06-10.62-2.33-15.61,1.41-.71.53-.4,1.65.47,1.75.83.09,1.75.15,2.43.09,1.61-.15,2.45,1.25,2,2.71-.42,1.36-1.78,1.87-3.06,1.49-.77-.23-1.53-.61-2.29-.9-.95-.38-1.86-.54-2.71-.31Z" style="fill:#212121;"/><path d="m31.12,10.25c-.19.08-.38.16-.57.23,0,0-.01-.02-.02-.03-.15.05-.29.09-.44.14-.56.17-1.13.35-1.66.61-1.05.48-2.04,1.13-2.93,1.92-.54.48-1.05,1-1.54,1.56-.04.04-.07.08-.1.12-.06.07-.11.14-.18.22-.07.08-.13.15-.2.21-.12.13-.23.25-.37.42l-.5.5c-.07.07-.14.13-.22.19-.18.14-.53.42-.68.55-.05.04-.11.08-.17.12-.77.46-1.6.94-2.47.99h-.18c-1.22-.02-2.42-.28-3.56-.77-.08-.04-.16-.07-.26-.11-.87-.33-1.3-1.51-.55-2.07.67-.49,1.41-.32,2.19-.14.17.04.34.08.5.11,2.14.19,2.76-1.01,3.5-2.42.36-.7.76-1.45,1.37-2.11,2.47-2.66,4.71-2.75,8.04-3.32.4-.07.68-.08,1.02-.15.4-.08.8-.18,1.19-.3.58-.2,1.19.23,1.13.86-.1.96-.47,1.76-1.4,2.25-.09.05-.19.09-.28.14-.21.11-.44.21-.66.29Z" style="fill:#ef4441;"/><path d="m33.01,15.44c.06.12.09.24.12.36.23.96-.39,2.08-1.31,2.26-1.88.36-3.72-1.5-4.85-2.67-.39-.41-.33-1.24.18-1.45.28-.12.57-.21.87-.29,1.81-.4,4.1-.18,4.99,1.78Z" style="fill:#ef4441;"/></svg>