<svg width="20" height="20" viewBox="0 0 20 20" fill="none" xmlns="http://www.w3.org/2000/svg">
<g clip-path="url(#clip0_1894_7111)">
<path d="M10 0C15.5312 0 20 4.46875 20 10C20 15.5312 15.5312 20 10 20C4.46875 20 0 15.5312 0 10C0 4.46875 4.46875 0 10 0Z" fill="#A4C639"/>
<path d="M5.1875 7.68726C4.75 7.68726 4.375 8.06226 4.375 8.49976V11.8748C4.375 12.3123 4.75 12.6873 5.1875 12.6873C5.65625 12.6873 6 12.3123 6 11.8748V8.46851C6.03125 8.03101 5.65625 7.68726 5.1875 7.68726ZM11.8125 4.62476L12.375 3.59351C12.4062 3.53101 12.375 3.46851 12.3438 3.43726C12.2812 3.40601 12.2188 3.43726 12.1875 3.46851L11.5937 4.49976C11.0937 4.28101 10.5625 4.15601 10 4.15601C9.4375 4.15601 8.875 4.28101 8.40625 4.49976L7.8125 3.49976C7.78125 3.43726 7.71875 3.43726 7.65625 3.43726C7.59375 3.46851 7.59375 3.53101 7.625 3.59351L8.1875 4.62476C7.0625 5.18726 6.3125 6.28101 6.3125 7.53101H13.6875C13.6875 6.31226 12.9375 5.21851 11.8125 4.62476ZM8.3125 6.21851C8.15625 6.21851 8 6.09351 8 5.90601C8 5.74976 8.125 5.59351 8.3125 5.59351C8.46875 5.59351 8.625 5.71851 8.625 5.90601C8.625 6.09351 8.5 6.21851 8.3125 6.21851ZM11.6875 6.21851C11.5313 6.21851 11.375 6.09351 11.375 5.90601C11.375 5.74976 11.5 5.59351 11.6875 5.59351C11.8438 5.59351 12 5.71851 12 5.90601C12 6.09351 11.8438 6.21851 11.6875 6.21851ZM6.34375 7.84351V13.0935C6.34375 13.5623 6.75 13.9685 7.21875 13.9685H7.8125V15.7498C7.8125 16.1873 8.1875 16.5623 8.625 16.5623C9.09375 16.5623 9.4375 16.1873 9.4375 15.7498V13.9685H10.5312V15.7498C10.5312 16.1873 10.9062 16.5623 11.3438 16.5623C11.8125 16.5623 12.1563 16.1873 12.1563 15.7498V13.9685H12.75C13.2188 13.9685 13.625 13.5935 13.625 13.0935V7.84351H6.34375ZM15.625 8.49976C15.625 8.06226 15.25 7.68726 14.8125 7.68726C14.375 7.68726 14 8.06226 14 8.49976V11.906C14 12.3435 14.375 12.7185 14.8125 12.7185C15.25 12.7185 15.625 12.3435 15.625 11.906V8.49976Z" fill="white"/>
</g>
<defs>
<clipPath id="clip0_1894_7111">
<rect width="20" height="20" fill="white"/>
</clipPath>
</defs>
</svg>
