<svg width="20" height="20" viewBox="0 0 20 20" fill="none" xmlns="http://www.w3.org/2000/svg">
<path d="M15.0026 10.3769C15.0274 13.0479 17.3458 13.9367 17.3715 13.9481C17.3519 14.0108 17.0011 15.2148 16.1501 16.4584C15.4144 17.5336 14.6509 18.6049 13.4482 18.6271C12.2664 18.6488 11.8863 17.9262 10.5352 17.9262C9.18445 17.9262 8.76223 18.6049 7.64351 18.6488C6.48256 18.6928 5.59851 17.4862 4.85675 16.4149C3.34106 14.2236 2.18276 10.2228 3.73806 7.52221C4.51071 6.18109 5.89148 5.33183 7.39019 5.31005C8.53021 5.2883 9.60626 6.07702 10.3032 6.07702C10.9996 6.07702 12.3073 5.12852 13.6819 5.26782C14.2574 5.29177 15.8728 5.50028 16.9101 7.01859C16.8265 7.0704 14.9826 8.14383 15.0026 10.3769ZM12.7815 3.81809C13.3979 3.07201 13.8127 2.03341 13.6996 1C12.8111 1.03571 11.7368 1.59203 11.0996 2.33769C10.5285 2.99801 10.0283 4.0549 10.1633 5.06785C11.1535 5.14447 12.1652 4.56464 12.7815 3.81809Z" fill="black"/>
</svg>
