<svg width="24" height="24" viewBox="0 0 24 24" fill="none" xmlns="http://www.w3.org/2000/svg">
<path fill-rule="evenodd" clip-rule="evenodd" d="M11.4488 5.00725C11.4613 5.0089 11.4738 5.01072 11.4862 5.01273C12.7518 5.21685 13.5844 6.33351 13.5844 7.50998V10.3499C13.9464 10.4181 14.2792 10.5646 14.5654 10.7709C14.7455 10.7281 14.9342 10.7049 15.1293 10.7049C15.7203 10.7049 16.2555 10.9114 16.6755 11.2507C16.9255 11.2017 17.1914 11.1906 17.4664 11.2288C18.7958 11.405 19.5794 12.5883 19.6149 13.6889C19.6154 13.7029 19.6156 13.7169 19.6156 13.7308V18.3517C19.5898 21.1131 17.303 23.3001 14.5793 23.3001H13.2137C11.5663 23.3001 10.0536 22.5139 9.12461 21.2051L9.12288 21.2027C9.11555 21.1925 9.10958 21.184 9.10701 21.1802L9.0903 21.1558L9.05267 21.0998C9.0226 21.0549 8.97981 20.9907 8.92661 20.9107C8.81999 20.7504 8.66908 20.5229 8.48896 20.2512C8.12862 19.7076 7.65009 18.9848 7.17235 18.2628C6.69456 17.5408 6.21737 16.8194 5.85965 16.2785L5.2674 15.3829C4.45311 14.1748 5.04517 12.7262 6.01634 12.0672C6.7941 11.5394 7.84446 11.4805 8.65157 11.9566V7.45308C8.65157 6.00736 9.92743 4.80707 11.4488 5.00725ZM9.95157 15.343C9.95157 15.4947 9.74294 15.5706 9.66708 15.4378L8.30152 13.3705C7.97909 12.8963 7.27735 12.7825 6.7463 13.1429C6.21525 13.5033 6.02559 14.186 6.34801 14.6602C6.34801 14.6602 10.1602 20.4259 10.1792 20.4448C10.8619 21.4121 11.9809 22.0001 13.2137 22.0001H14.5793C16.6087 22.0001 18.2966 20.369 18.3156 18.3396V13.7308C18.2966 13.1429 17.8794 12.5929 17.2914 12.517C16.9595 12.4696 16.6407 12.5803 16.401 12.7722C16.3393 12.8216 16.2394 12.7963 16.2083 12.7237C16.0275 12.3013 15.6154 12.0049 15.1293 12.0049C14.8355 12.0049 14.5669 12.1184 14.3646 12.294C14.3053 12.3454 14.2051 12.3254 14.1701 12.2551C14.0468 12.0074 13.8402 11.8101 13.5844 11.7008C13.4425 11.6402 13.2853 11.6066 13.1189 11.6066C12.939 11.6066 12.771 11.648 12.618 11.7207C12.5645 11.7462 12.5129 11.7754 12.4633 11.8081C12.3906 11.856 12.2844 11.8077 12.2844 11.7207V7.50998C12.2844 6.92203 11.8671 6.39097 11.2792 6.29614C10.5585 6.20131 9.95157 6.7703 9.95157 7.45308V15.343ZM13.5136 11.3113L13.5125 11.3122L13.5136 11.3113Z" fill="black"/>
<path fill-rule="evenodd" clip-rule="evenodd" d="M13.4785 1.52641C14.206 1.95497 14.8009 2.57637 15.1973 3.32193C15.5937 4.06748 15.7762 4.90814 15.7247 5.75095C15.7028 6.10927 15.3945 6.38197 15.0362 6.36006C14.6779 6.33814 14.4052 6.0299 14.4271 5.67159C14.464 5.06807 14.3333 4.46611 14.0495 3.93224C13.7656 3.39837 13.3396 2.9534 12.8187 2.64652C12.2977 2.33964 11.702 2.18281 11.0974 2.19336C10.4929 2.20392 9.90303 2.38144 9.39308 2.70632C8.88313 3.03119 8.47296 3.49076 8.2079 4.0342C7.94284 4.57765 7.83323 5.18381 7.89118 5.78567C7.92559 6.14301 7.66381 6.46057 7.30647 6.49498C6.94914 6.52939 6.63157 6.2676 6.59717 5.91027C6.51624 5.06977 6.66931 4.22326 7.03947 3.46432C7.40962 2.70539 7.98244 2.0636 8.69459 1.60991C9.40675 1.15622 10.2305 0.908299 11.0748 0.893562C11.919 0.878825 12.7509 1.09784 13.4785 1.52641Z" fill="black"/>
</svg>
