<svg width="32" height="32" viewBox="0 0 32 32" fill="none" xmlns="http://www.w3.org/2000/svg">
  <rect width="32" height="32" rx="4" fill="white" />
  <path
    fill-rule="evenodd"
    clip-rule="evenodd"
    fill="black"
    d="M20.0002 23.9877H22.9902L23.0002 15.6117L15.9982 8.41975L9.00621 15.5708L9.00021 23.9877H12.0002V16.9878C12.0002 16.4347 12.4472 15.9878 13.0002 15.9878H19.0002C19.5522 15.9878 20.0002 16.4347 20.0002 16.9878V23.9877ZM18.0002 23.9877H14.0002V17.9878H18.0002V23.9877ZM24.4242 14.1728L16.7152 6.28875C16.3382 5.90375 15.6622 5.90375 15.2852 6.28875L7.57521 14.1737C7.21021 14.5487 7.00021 15.0728 7.00021 15.6117V23.9877C7.00021 25.0907 7.84721 25.9877 8.88821 25.9877H13.0002H19.0002H23.1112C24.1522 25.9877 25.0002 25.0907 25.0002 23.9877V15.6117C25.0002 15.0728 24.7902 14.5488 24.4242 14.1728Z"
  />
</svg>
