<svg width="24" height="24" viewBox="0 0 24 24" fill="none" xmlns="http://www.w3.org/2000/svg">
<path d="M20.9847 9.40506C21.5754 9.40506 22.0396 8.94093 22.0396 8.35021V3.64557C22.0396 3.05485 21.5754 2.59072 20.9847 2.59072C20.394 2.59072 19.9299 3.05485 19.9299 3.64557V5.81857L19.0438 4.93249C17.145 3.05485 14.6556 2 11.9763 2C9.29695 2 6.7864 3.03376 4.90876 4.93249C1.0269 8.83544 1.0269 15.1646 4.92986 19.0675C6.87079 21.0084 9.44463 22 11.9974 22C14.5501 22 17.124 21.0295 19.0649 19.0675C20.605 17.5274 21.5965 15.5443 21.8919 13.3924C21.9763 12.8228 21.5754 12.2954 20.9847 12.211C20.4151 12.1266 19.8877 12.5274 19.8033 13.1181C19.5712 14.827 18.7906 16.3671 17.567 17.5907C14.4868 20.6498 9.48682 20.6498 6.40665 17.5907C3.32648 14.5105 3.32648 9.51055 6.40665 6.43038C7.90454 4.93249 9.88766 4.1097 11.9763 4.1097C14.086 4.1097 16.0691 4.93249 17.5459 6.43038L18.432 7.31646H16.2801C15.6894 7.31646 15.2252 7.78059 15.2252 8.37131C15.2252 8.96203 15.6894 9.42616 16.2801 9.42616H20.9847V9.40506Z" fill="#212121"/>
<path d="M11.9338 6.45142C11.343 6.45142 10.8789 6.91555 10.8789 7.50627V11.9999C10.8789 12.3586 11.0477 12.675 11.343 12.8649L14.0435 14.6793C14.2333 14.8058 14.4232 14.8691 14.6342 14.8691C14.9717 14.8691 15.3093 14.7004 15.4992 14.405C15.8156 13.9198 15.689 13.2658 15.2249 12.9493L12.9886 11.4514V7.50627C12.9886 6.93665 12.5245 6.45142 11.9338 6.45142Z" fill="#212121"/>
</svg>
