<svg width="24" height="24" viewBox="0 0 24 24" fill="none" xmlns="http://www.w3.org/2000/svg">
<path fill-rule="evenodd" clip-rule="evenodd" d="M11.4143 3C9.15569 3.12965 7.03761 4.00732 5.34698 5.51405L7.96162 8.12868C8.94558 7.30952 10.1403 6.81449 11.4143 6.69809V3ZM7.13185 8.95701L4.51725 6.34242C3.00924 8.03258 2.13047 10.1508 2 12.41H5.69824C5.81543 11.1357 6.31151 9.94089 7.13185 8.95701ZM21.9999 12.41H18.3017C18.1845 11.1357 17.6884 9.94085 16.8681 8.95701L19.4827 6.34242C20.9907 8.03258 21.8695 10.1508 21.9999 12.41ZM18.3008 13.5818C18.2187 14.4843 17.9611 15.237 17.6565 15.8407C17.9537 16.299 18.2014 16.6862 18.3651 16.9434C18.8108 17.6439 18.7121 18.543 18.1251 19.1301C17.9825 19.2726 17.8197 19.3874 17.6433 19.4723L18.2522 20.0813C18.3668 20.1959 18.5171 20.2532 18.6673 20.2532C18.8175 20.2532 18.9677 20.1959 19.0822 20.0813C20.8371 18.3267 21.8603 16.0371 22.0003 13.5818H18.3008ZM2 13.5818H5.69953C5.89328 15.7106 7.06189 17.0094 7.52582 17.4734C7.755 17.7026 7.755 18.0742 7.52582 18.3034L5.74805 20.0813C5.63344 20.1959 5.48321 20.2532 5.33302 20.2532C5.18282 20.2532 5.03263 20.1959 4.91802 20.0813C3.16326 18.3267 2.14004 16.0371 2 13.5818ZM18.6528 5.51405C16.9621 4.00728 14.844 3.12965 12.5854 3V6.69809C13.8594 6.81449 15.0542 7.30952 16.0381 8.12868L18.6528 5.51405ZM10.699 11.7039C11.4168 10.986 12.5848 10.986 13.3027 11.7039C14.2095 12.6107 17.0552 17.0675 17.3767 17.5727C17.5241 17.8044 17.4909 18.1074 17.2967 18.3016C17.1025 18.4957 16.7995 18.529 16.5678 18.3816C16.0626 18.0601 11.6058 15.2144 10.699 14.3076C9.98112 13.5897 9.98112 12.4217 10.699 11.7039Z" fill="#212121"/>
</svg>
