<svg width="20" height="20" viewBox="0 0 20 20" fill="none" xmlns="http://www.w3.org/2000/svg">
<circle cx="10" cy="10" r="10" fill="#F3F3F3"/>
<path d="M13.4925 6.25016C14.0046 6.26016 14.4358 6.75031 14.4178 7.31048C14.3999 7.84064 13.9596 8.32078 13.4835 8.32078C12.9804 8.32078 12.5402 7.84064 12.5402 7.27047C12.5402 6.7003 12.9624 6.24016 13.4925 6.25016Z" fill="#F3433F"/>
<path d="M9.03215 6.25016C9.54424 6.26016 9.97548 6.75031 9.95751 7.31048C9.93954 7.84064 9.49932 8.32078 9.02316 8.32078C8.52005 8.32078 8.07983 7.84064 8.07983 7.27047C8.07983 6.7003 8.50209 6.24016 9.03215 6.25016Z" fill="#212121"/>
<path d="M3.98719 11.1457C3.63343 11.2407 3.70455 11.7298 4.00856 11.9435C4.50375 12.2917 4.95957 12.6909 5.46005 12.8693C5.95934 13.0291 6.48879 13.0241 6.98563 12.8549C7.29823 12.7528 7.58906 12.5798 7.84029 12.3465L8.06678 12.1201C8.14583 12.0213 8.20352 11.9659 8.28044 11.8792C8.32104 11.8358 8.34882 11.7972 8.38728 11.7515C8.56464 11.5429 8.75301 11.3466 8.95136 11.1636C9.28546 10.8669 9.65432 10.6237 10.0475 10.4409C10.4748 10.2361 10.9342 10.0939 11.3295 9.88917C11.6792 9.70311 11.8165 9.39733 11.8547 9.03266C11.8798 8.79318 11.6482 8.6307 11.432 8.70626C11.2849 8.75243 11.1359 8.79022 10.9855 8.81949C8.9364 9.2146 7.02908 7.94928 5.16947 9.34469C4.90472 9.54335 5.02081 9.96082 5.34364 9.99595C5.65441 10.0298 5.99612 10.0523 6.24848 10.0289C6.84675 9.97349 7.16084 10.4939 6.99204 11.0408C6.83606 11.5467 6.32754 11.7394 5.8532 11.5973C5.56475 11.5106 5.28271 11.3708 4.99853 11.2624C4.64642 11.1201 4.30549 11.0602 3.98719 11.1457Z" fill="#212121"/>
<path d="M15.3434 10.0719C15.2731 10.1011 15.2018 10.1297 15.13 10.1581C15.1278 10.1545 15.1257 10.151 15.1236 10.1474C15.0695 10.1647 15.015 10.1813 14.9605 10.198C14.7503 10.2624 14.539 10.3271 14.3437 10.4253C13.9525 10.606 13.5855 10.8463 13.2531 11.1395C13.0521 11.3199 12.8611 11.5139 12.6812 11.7204C12.6677 11.7363 12.6555 11.7514 12.6436 11.7661C12.6219 11.7931 12.6011 11.8188 12.5749 11.8465C12.5487 11.8758 12.5248 11.9015 12.5015 11.9265C12.4566 11.9747 12.4141 12.0204 12.3623 12.0846L12.1748 12.2708C12.1497 12.2958 12.1225 12.3185 12.0947 12.3403C12.0258 12.3942 11.8976 12.4984 11.8396 12.5458C11.8195 12.5621 11.7985 12.5768 11.7764 12.59C11.49 12.7609 11.1792 12.9405 10.8571 12.9593H10.7891C10.3351 12.9526 9.88583 12.8551 9.46251 12.6712C9.43395 12.6572 9.40189 12.6435 9.36741 12.6302C9.04419 12.5054 8.88191 12.068 9.16275 11.8594C9.41131 11.6783 9.68852 11.7411 9.97692 11.8064C10.0391 11.8204 10.1018 11.8346 10.1648 11.8465C10.9616 11.9166 11.1943 11.4702 11.4687 10.9439C11.6044 10.6837 11.7503 10.4039 11.9796 10.1573C12.8995 9.16757 13.7329 9.13046 14.9743 8.91854C15.1221 8.89331 15.2271 8.88819 15.3543 8.864C15.5035 8.83535 15.6514 8.79835 15.7973 8.75316C16.0117 8.6792 16.2414 8.83824 16.2165 9.07266C16.1787 9.42963 16.0424 9.72894 15.6955 9.91107C15.6611 9.92866 15.6262 9.94578 15.5909 9.9625C15.5112 10.0041 15.4283 10.0398 15.3434 10.0719Z" fill="#F3433F"/>
<path d="M16.0483 12.0064C16.069 12.0527 16.0837 12.0973 16.0943 12.1407C16.1807 12.4972 15.9474 12.9177 15.6061 12.9831C14.9074 13.117 14.2217 12.4241 13.8013 11.9876C13.6557 11.8365 13.6778 11.5268 13.867 11.4481C13.9727 11.4041 14.0811 11.3684 14.1913 11.3414C14.8652 11.1911 15.7203 11.2732 16.0483 12.0064Z" fill="#F3433F"/>
</svg>
