<svg width="20" height="20" viewBox="0 0 20 20" fill="none" xmlns="http://www.w3.org/2000/svg">
<circle cx="10" cy="10" r="10" fill="#F3F3F3"/>
<g clip-path="url(#clip0_1458_14573)">
<path d="M6.46228 4.81684C7.16692 4.72533 7.89595 4.88395 8.49687 5.25609C8.83546 5.45742 9.10694 5.7472 9.38452 6.02173C9.58585 6.22 9.78717 6.41828 9.98849 6.61655L9.99459 6.63485C9.54924 7.0741 9.10389 7.5164 8.65549 7.95871C8.3291 7.64452 8.01186 7.31508 7.68243 6.99784C7.37129 6.70806 6.90154 6.5891 6.49584 6.72331C6.03218 6.85143 5.67834 7.29678 5.65394 7.77874C5.63564 8.02886 5.70275 8.28509 5.84001 8.49557C5.92237 8.63283 6.04744 8.7335 6.15725 8.84941C6.42263 9.11479 6.69411 9.37712 6.95644 9.64555C6.51109 10.0848 6.05964 10.521 5.61734 10.9664C5.26655 10.6339 4.92796 10.2861 4.58022 9.95059C4.16537 9.51744 3.88779 8.95617 3.79018 8.3644C3.68646 7.72993 3.78407 7.0619 4.07691 6.48539C4.32399 6.00343 4.69613 5.58553 5.15063 5.2927C5.54718 5.04257 5.99558 4.86565 6.46228 4.81684Z" fill="#EA4335"/>
<path d="M12.5202 4.8538C12.9015 4.78364 13.295 4.77449 13.6763 4.8355C14.57 4.98801 15.3906 5.54318 15.842 6.33322C16.3545 7.19952 16.385 8.3251 15.9274 9.2219C15.7383 9.60625 15.4516 9.93263 15.1435 10.2285C14.8903 10.4725 14.6493 10.7318 14.3901 10.9698C13.9447 10.5275 13.4933 10.0882 13.051 9.64285C13.3682 9.32256 13.6885 9.01143 14.0057 8.69114C14.2101 8.48372 14.3382 8.20003 14.3504 7.91025C14.3657 7.57776 14.2345 7.24222 13.9935 7.01345C13.7495 6.78162 13.4078 6.65045 13.0693 6.67791C12.7795 6.69316 12.4988 6.82432 12.2945 7.0287C11.5288 7.78214 10.7693 8.54167 10.0037 9.29816C9.55525 8.85586 9.1038 8.41356 8.6615 7.96821L8.65845 7.96516C9.1038 7.52591 9.54915 7.08361 9.99755 6.6413C10.3209 6.32102 10.6442 6.00073 10.9706 5.68044C11.3885 5.25644 11.9406 4.97886 12.5202 4.8538Z" fill="#4285F4"/>
<path d="M6.95678 9.64278C7.5211 9.07846 8.08846 8.52025 8.65888 7.95898C9.10118 8.40739 9.55263 8.84664 10.001 9.28894C9.43367 9.84715 8.86935 10.4054 8.30504 10.9605C7.85663 11.4059 7.40518 11.8482 6.95678 12.2905C6.52363 11.8695 6.09353 11.4394 5.66343 11.0124C5.65123 10.9971 5.62683 10.9727 5.61768 10.9575C6.05998 10.5182 6.50838 10.082 6.95678 9.64278Z" fill="#FBBC05"/>
<path d="M10.0041 12.6413C11.0229 11.6408 12.0326 10.6342 13.0514 9.63672C13.4967 10.0821 13.9421 10.5244 14.3905 10.9636C12.9294 12.4125 11.4652 13.8584 10.0041 15.3012C8.98832 14.3007 7.97256 13.2971 6.96289 12.2905C7.41129 11.8452 7.86274 11.4029 8.31115 10.9606C8.87241 11.5218 9.43673 12.0831 10.0041 12.6413Z" fill="#34A853"/>
</g>
<defs>
<clipPath id="clip0_1458_14573">
<rect width="12.5" height="12.5" fill="white" transform="translate(3.75 3.75)"/>
</clipPath>
</defs>
</svg>
