<svg width="20" height="20" viewBox="0 0 20 20" fill="none" xmlns="http://www.w3.org/2000/svg">
<circle cx="10" cy="10" r="10" fill="#F3F3F3"/>
<path d="M6.70804 9.38426H11.9163C12.2761 9.38426 12.5885 9.10741 12.6219 8.76739C12.6562 8.41267 12.3742 8.12734 11.9982 8.12734H5.76435L6.55595 5.94398C6.62391 5.75772 6.8138 5.625 7.02369 5.625H12.5117C14.3804 5.625 15.7836 7.08196 15.6106 8.84558C15.4455 10.5346 13.8923 11.8769 12.104 11.8774L8.67549 11.8787C8.35668 11.879 8.082 12.0689 7.98453 12.3375L7.36185 14.0555C7.29422 14.242 7.10498 14.375 6.89541 14.375H4.36812C3.9207 14.375 3.64448 13.9718 3.78828 13.5752L4.84756 10.655C5.11777 9.9093 5.8697 9.38426 6.70804 9.38426Z" fill="#231F20"/>
</svg>
