<svg width="12" height="12" viewBox="0 0 12 12" fill="none" xmlns="http://www.w3.org/2000/svg">
<path fill-rule="evenodd" clip-rule="evenodd" d="M6 12C9.31371 12 12 9.31371 12 6C12 2.68629 9.31371 0 6 0C2.68629 0 0 2.68629 0 6C0 9.31371 2.68629 12 6 12ZM6.96994 3.96994C7.26319 3.67669 7.73719 3.67669 8.03044 3.96994C8.32369 4.26319 8.32369 4.73719 8.03044 5.03044L7.06069 6.00019L8.03044 6.96994C8.32369 7.26319 8.32369 7.73719 8.03044 8.03044C7.88419 8.17669 7.69219 8.25019 7.50019 8.25019C7.30819 8.25019 7.11619 8.17669 6.96994 8.03044L6.00019 7.06069L5.03044 8.03044C4.88419 8.17669 4.69219 8.25019 4.50019 8.25019C4.30819 8.25019 4.11619 8.17669 3.96994 8.03044C3.67669 7.73719 3.67669 7.26319 3.96994 6.96994L4.93969 6.00019L3.96994 5.03044C3.67669 4.73719 3.67669 4.26319 3.96994 3.96994C4.26319 3.67669 4.73719 3.67669 5.03044 3.96994L6.00019 4.93969L6.96994 3.96994Z" fill="#191C1F"/>
</svg>
